<?xml version="1.0" standalone="no"?>
<!DOCTYPE svg PUBLIC "-//W3C//DTD SVG 20010904//EN"
 "http://www.w3.org/TR/2001/REC-SVG-20010904/DTD/svg10.dtd">
<svg version="1.0" xmlns="http://www.w3.org/2000/svg"
 width="660.000000pt" height="660.000000pt" viewBox="0 0 660.000000 660.000000"
 preserveAspectRatio="xMidYMid meet">
<metadata>
Created by potrace 1.14, written by Peter Selinger 2001-2017
</metadata>
<g transform="translate(0.000000,660.000000) scale(0.100000,-0.100000)"
fill="#000000" stroke="none">
<path d="M1065 5857 c-101 -34 -147 -66 -227 -157 -30 -34 -48 -71 -48 -99 0
-16 -4 -33 -10 -36 -5 -3 -10 -37 -10 -76 0 -39 -4 -69 -10 -69 -13 0 -13 -27
-1 -32 17 -6 23 -295 31 -1453 5 -648 13 -1181 19 -1250 6 -66 11 -296 11
-512 0 -250 4 -394 10 -398 6 -4 10 -110 10 -285 0 -153 4 -290 9 -304 13 -33
93 -143 133 -183 18 -18 41 -33 50 -33 9 0 34 -10 55 -22 l38 -23 1340 -7
c737 -3 1721 -10 2188 -13 546 -5 852 -4 860 3 6 5 31 12 53 16 100 15 191 94
254 221 l25 50 -2 485 c-2 267 -5 544 -8 615 -4 72 -9 281 -11 465 -3 184 -10
339 -14 344 -5 5 -5 18 1 29 7 11 8 32 3 51 -4 17 -10 564 -13 1216 -5 1005
-9 1190 -21 1218 -8 17 -17 32 -21 32 -4 0 -10 11 -13 24 -15 58 -137 152
-236 181 -41 12 -4410 14 -4445 2z"/>
</g>
</svg>
